<svg width="3339" height="634" viewBox="0 0 3339 634" fill="none" xmlns="http://www.w3.org/2000/svg">
<g clip-path="url(#clip0_153_289)">
<path d="M104.38 195.22C97.8401 202.48 91.3901 209.21 85.4201 216.35C76.8401 226.6 68.9801 237.47 62.4601 249.19C57.1001 258.82 52.0401 268.69 47.7601 278.85C38.5501 300.69 32.8601 323.53 30.9901 347.29C29.0201 372.35 30.9101 397.08 37.6001 421.31C39.9601 429.84 43.1101 438.15 45.9301 446.55C46.2201 447.41 46.6901 448.21 47.1501 449.19C64.7101 444.02 82.5601 441.64 100.77 441.38C78.6101 388.86 73.8401 335.21 90.6601 280.57C107.4 226.21 140.91 184.59 187.84 153.82C187.69 153.58 187.55 153.34 187.4 153.1C183 154.5 178.61 155.92 174.21 157.29C172.3 157.89 170.35 158.33 168.44 158.94C154.78 163.32 141.09 167.61 127.48 172.14C112.87 177.01 98.3301 182.11 83.7601 187.1C83.3001 187.26 82.8101 187.31 81.8901 187.5C82.2901 185.98 82.5201 184.7 82.9701 183.49C86.3801 174.21 91.1301 165.77 97.4101 158.13C102.37 152.1 108.23 147.22 114.19 142.32C122.81 135.24 132.68 130.79 142.82 126.65C162.73 118.53 183.27 116.86 204.33 119.83C204.65 119.88 204.98 119.83 205.81 119.83C204.97 119.22 204.51 118.83 203.99 118.53C190.86 110.87 177.67 103.31 164.59 95.5498C156.27 90.6098 148.07 85.4598 139.9 80.2898C133.13 75.9998 126.47 71.5398 119.77 67.1498C119.43 66.9298 119.13 66.6498 118.2 65.8998C122.41 64.1498 126.08 62.2198 129.98 61.0698C147.51 55.8698 165.02 56.8298 182.11 62.8098C192.48 66.4398 202.58 71.1198 211.29 78.0698C219.06 84.2598 226.74 90.6698 232.26 99.2298C232.76 99.9998 233.38 100.68 234.12 101.32C222.72 67.9098 211.39 34.4998 200.85 0.00976562C223.6 4.24977 240.58 15.7298 252.72 34.8598C264.83 53.9298 268.13 74.5798 263.86 97.0298C264.61 96.6098 265.12 96.4398 265.5 96.0998C273.45 89.1198 282.92 85.0998 292.55 81.2198C307.23 75.3198 322.4 73.9698 337.9 75.5798C352.74 77.1198 366.03 82.7598 377.71 92.2198C378.37 92.7598 378.79 93.5998 379.32 94.2998C378.57 94.7398 377.86 95.3398 377.05 95.5898C361.81 100.2 346.56 104.79 331.3 109.33C314.07 114.46 296.83 119.52 279.6 124.65C276.68 125.52 273.81 126.55 270.94 127.88C274.34 127.88 277.74 127.77 281.14 127.9C297.53 128.54 313.2 132.46 327.62 140.32C335.02 144.36 342.11 149.41 348.35 155.12C359.32 165.16 366.45 177.75 368.68 192.87C368.74 193.27 368.74 193.69 368.84 194.93C352.07 189.07 335.66 183.49 319.35 177.6C303.09 171.73 286.94 165.56 270.54 159.9C271.59 160.85 272.67 161.76 273.68 162.75C290.5 179.24 300.17 199.34 302.98 222.9C304.79 238.1 303 252.87 297.21 266.98C293.48 276.06 288.4 284.4 281.02 291.9C279.24 286.19 277.46 280.96 275.99 275.65C271.27 258.62 267.14 241.41 261.89 224.56C256.74 208.04 250.62 191.82 244.67 175.57C241.53 167.01 237.85 158.66 234.41 150.22C234.07 149.38 233.66 148.57 233.02 147.18C229.31 150.59 225.87 153.73 222.45 156.89C221.47 157.79 220.56 158.76 219.61 159.69C210.63 168.62 201.18 177.12 192.78 186.58C183.89 196.61 175.58 207.25 167.8 218.19C161.19 227.49 155.26 237.37 149.79 247.42C138.3 268.52 129.12 290.69 123.29 314.11C119.62 328.86 116.31 343.77 113.87 358.77C109.54 385.42 108.39 412.35 108.76 439.35C108.78 441.1 109.35 441.66 111.05 441.75C132.03 442.75 152.6 446.32 172.78 452.25C174.4 452.73 175.63 452.5 176.94 451.49C181.71 447.79 186.69 444.37 191.28 440.45C197.64 435.01 203.98 429.5 209.84 423.51C217.45 415.73 224.83 407.68 231.87 399.37C251.39 376.35 283.06 377.49 301.42 389.82C306.25 393.07 310.19 397.77 314.3 402.04C320.28 408.27 325.86 414.9 331.93 421.04C337.34 426.52 343.02 431.75 348.87 436.74C355.23 442.16 361.94 447.17 368.47 452.38C369.44 453.15 370.34 454.01 371.22 454.89C372.73 456.41 373.94 456.1 375.44 454.68C383.09 447.42 390.84 440.28 398.53 433.06C402.74 429.1 406.73 424.89 411.09 421.11C419.09 414.16 428.37 409.87 438.67 407.49C444.92 406.05 451.16 405.13 457.44 405.97C470.51 407.72 482.9 411.62 492.62 421.22C497.62 426.16 501.45 432.14 504.68 438.52C507.19 443.47 510.29 448.12 513.43 453.42C525.34 429.13 532.51 403.91 536.05 377.44C536.33 381.52 536.71 385.59 536.86 389.67C537.61 410.48 535.29 430.93 529.85 451.02C525.23 468.07 518.64 484.27 510.04 499.67C504.15 510.21 497.59 520.24 490.2 529.77C481.26 541.29 471.6 552.08 460.58 561.56C454.43 566.85 448.37 572.28 441.86 577.07C434.06 582.81 425.78 587.86 417.8 593.34C408.29 599.88 397.66 604.09 387.36 609.03C372.51 616.16 356.79 620.42 341 624.65C306.18 633.98 270.91 634.83 235.38 630.8C225.87 629.72 216.26 628.53 207.05 626.05C191.87 621.95 176.75 617.39 162.04 611.82C150.63 607.5 139.68 601.76 128.93 595.88C120.31 591.17 112.13 585.56 104.09 579.85C97.1501 574.92 90.5501 569.46 84.0701 563.91C78.9301 559.51 73.9501 554.85 69.3201 549.89C59.7601 539.65 50.3601 529.19 42.6601 517.41C36.1301 507.42 29.7601 497.24 24.3901 486.58C8.39008 454.89 0.0400761 421.14 7.61436e-05 385.4C-0.0199239 361.12 3.90008 337.52 11.6701 314.56C15.3101 303.81 19.7001 293.42 24.7601 283.28C30.2801 272.22 36.8301 261.87 44.1401 251.96C52.5501 240.56 61.6901 229.85 72.2801 220.5C77.6701 215.74 83.1001 211.02 88.6801 206.5C92.9601 203.04 97.5001 199.91 101.94 196.66C102.6 196.18 103.35 195.83 104.37 195.23L104.38 195.22ZM49.6401 455.1C50.3101 456.6 50.6001 457.39 51.0101 458.12C56.2901 467.52 61.2501 477.12 66.9501 486.24C74.1901 497.82 83.1101 508.15 92.3501 518.11C97.1901 523.33 102.34 528.31 107.74 532.91C114.55 538.71 121.46 544.5 128.9 549.4C138.85 555.96 149.15 562.04 159.66 567.63C168.18 572.17 177.07 576.07 186.05 579.59C207.24 587.9 229.44 592.23 251.87 594.84C272.32 597.21 292.85 597.21 313.36 594.03C335.22 590.64 356.79 586.47 377.32 577.71C388.74 572.84 400.39 568.52 410.92 561.72C418.77 556.66 426.85 551.93 434.46 546.51C441.59 541.43 448.34 535.77 455.05 530.12C459.73 526.18 464.1 521.86 468.52 517.61C469.93 516.25 471.06 514.59 472.32 513.07C469.84 514.16 467.79 515.75 465.59 517.05C454.31 523.68 442.21 528.53 429.94 532.7C410.79 539.21 390.9 542.1 370.76 542.92C337.35 544.29 304.47 540.81 272.32 531.13C256.63 526.41 240.83 521.99 226.11 514.47C216.4 509.51 206.59 504.73 196.89 499.75C186.51 494.41 176.44 488.37 165.8 483.64C152.79 477.86 139.51 472.58 126.03 468.06C107.08 461.71 87.5201 457.86 67.5901 456.21C61.8101 455.73 56.0001 455.48 49.6501 455.09L49.6401 455.1ZM198.23 461.3C198.94 461.77 199.24 462.04 199.6 462.21C205.41 464.89 211.16 467.73 217.07 470.18C230.3 475.66 243.44 481.44 256.93 486.16C269.34 490.5 282.15 493.69 294.83 497.22C299.4 498.49 304.15 499.08 308.71 500.37C311.22 501.08 313.02 502.19 315.79 500.02C323.41 494.05 331.53 488.74 339.39 483.08C345.03 479.02 350.62 474.88 356.13 470.64C358.38 468.91 360.36 466.84 362.75 464.65C361.9 464.46 361.52 464.34 361.13 464.28C347.63 462.3 334.69 458.63 322.47 452.23C312.46 446.99 302.65 441.55 293.97 434.19C289.81 430.67 285.66 427.13 281.44 423.69C279.8 422.35 278.13 420.72 276.2 420.1C271.12 418.48 266.74 419.47 262.58 423.51C254.58 431.27 245.95 438.37 236.39 444.09C226 450.3 215.46 456.26 203.76 459.64C202.03 460.14 200.31 460.68 198.22 461.31L198.23 461.3ZM354.4 507.1C354.42 507.27 354.45 507.43 354.47 507.6C359.51 507.87 364.55 508.25 369.6 508.41C395.9 509.24 421.94 507.63 447.33 499.77C460.62 495.66 473.87 491.52 485.82 484.03C490.71 480.97 495.71 478.1 500.66 475.12C501.23 474.78 501.94 474.46 502.25 473.93C505.05 469.18 507.77 464.38 510.41 459.79C505.51 457.04 500.93 454.53 496.42 451.9C492.66 449.72 489.11 447.13 485.24 445.21C479.81 442.53 474.3 439.87 468.57 438.04C464.32 436.68 459.8 437.36 455.35 438.74C449.74 440.48 444.54 442.71 440.44 447.06C437.97 449.68 435.79 452.58 433.25 455.11C428.03 460.31 422.94 465.72 417.26 470.36C409.63 476.6 401.8 482.7 393.51 487.96C381.6 495.51 369.11 502.05 355.66 506.47C355.22 506.61 354.83 506.88 354.42 507.09L354.4 507.1Z" fill="white"/>
<path d="M437.45 312.419C438.82 313.129 439.62 313.709 440.52 313.999C451.4 317.469 462.28 320.939 473.2 324.289C474.23 324.599 475.69 324.429 476.63 323.889C482 320.829 487.31 317.629 492.58 314.389C496.19 312.169 499.68 309.739 503.28 307.499C505.43 306.159 512.43 307.629 513.87 309.659C515.14 311.449 514.27 313.099 513.2 314.519C510.4 318.209 507.46 321.789 504.65 325.469C502.84 327.849 501.15 330.329 499.21 333.049C502.26 334.039 505.03 334.869 507.75 335.849C508.51 336.119 509.1 336.869 509.76 337.389C509.08 337.899 508.46 338.649 507.7 338.889C495.44 342.729 483.26 343.069 470.89 338.849C460.96 335.459 450.74 332.949 440.68 329.949C434.56 328.129 428.5 326.109 422.4 324.189C421.62 323.939 420.81 323.769 420.33 324.149C418.6 325.719 416.91 327.329 415.12 328.809C414.69 329.159 413.82 329.289 413.29 329.119C408.71 327.619 404.18 325.959 399.59 324.489C394.65 322.909 393.86 321.649 395.11 316.389C394.04 316.039 392.95 315.659 391.86 315.319C379.46 311.519 367.04 307.759 354.66 303.869C353.46 303.489 351.72 302.429 351.61 301.519C351.48 300.389 352.48 298.579 353.52 297.929C361.21 293.119 369.2 289.959 378.51 293.189C391.16 297.579 403.91 301.699 416.66 305.789C418.2 306.279 420.13 306.249 421.68 305.789C429.43 303.499 437.14 301.029 444.82 298.529C449.07 297.139 453.19 295.269 457.5 294.199C459.38 293.739 461.84 294.309 463.6 295.249C465.16 296.079 463.77 297.469 462.76 298.139C461.16 299.199 459.44 300.069 457.76 301.009C451.21 304.689 444.65 308.359 437.43 312.409L437.45 312.419Z" fill="white"/>
<path d="M392.67 128.25C397.87 121.75 404.6 120.49 412.13 122.84C416.7 124.26 420.72 128.92 421.4 133.1H363.3C365.05 128.71 367.42 125.28 371.55 123.39C378.74 120.1 384.83 121.51 392.66 128.25H392.67Z" fill="white"/>
<path d="M498.09 202.26H439.87C441.27 197.55 444.32 194.73 448.32 193.07C456.05 189.87 462.96 191.53 469.01 197.54C474.66 191.8 481.38 190.02 488.88 192.68C493.22 194.22 496.58 197.19 498.1 202.26H498.09Z" fill="white"/>
<path d="M377.84 234.78C378.47 229.79 384.04 225.22 390.84 224.3C397.02 223.46 402.28 225.58 406.58 230.11C417.91 218.66 433.65 225.6 435.52 234.78H377.83H377.84Z" fill="white"/>
</g>
<path d="M1026.45 259.718C1017.54 266.491 1010.94 272.908 1006.66 278.968C1002.39 284.672 998.465 292.336 994.9 301.961L927.524 503.555H881.537L836.085 353.296L791.168 503.555H744.646L676.201 301.961C672.636 291.98 668.715 284.315 664.437 278.968C660.516 273.264 654.099 266.848 645.187 259.718L649.464 253.836H746.785L749.994 263.461L742.507 265.6C737.16 267.382 733.239 269.699 730.743 272.551C728.604 275.047 727.535 278.612 727.535 283.246C727.535 286.811 728.783 292.515 731.278 300.357L784.751 459.707L825.925 320.677L820.043 301.961C816.478 291.98 812.557 284.315 808.279 278.968C804.358 273.264 797.941 266.848 789.029 259.718L793.307 253.836H890.628L894.371 263.461L886.35 265.6C880.646 267.026 876.725 269.165 874.586 272.017C872.447 274.512 871.377 278.255 871.377 283.246C871.377 286.811 872.625 292.515 875.12 300.357L922.177 460.242L975.115 301.427C977.61 293.584 978.858 287.702 978.858 283.781C978.858 279.503 977.61 276.116 975.115 273.621C972.976 270.769 969.233 268.63 963.886 267.204L954.261 263.461L957.469 253.836H1022.17L1026.45 259.718ZM1092.31 385.379C1084.83 389.657 1075.91 391.796 1065.58 391.796C1058.09 391.796 1052.21 389.657 1047.93 385.379C1043.65 380.745 1041.51 374.328 1041.51 366.129C1041.51 354.009 1047.4 344.383 1059.16 337.254C1071.28 329.767 1086.97 326.024 1106.22 326.024C1129.03 326.024 1146.86 331.015 1159.69 340.997C1172.88 350.978 1179.47 364.525 1179.47 381.636V474.145C1179.47 484.126 1183.04 489.117 1190.17 489.117C1196.94 489.117 1203.54 486.443 1209.95 481.096L1214.23 486.443C1201.04 501.059 1185.36 508.367 1167.18 508.367C1156.48 508.367 1148.28 505.694 1142.58 500.346C1137.23 494.999 1134.02 486.622 1132.95 475.214H1130.81C1125.11 485.552 1117.45 493.751 1107.82 499.812C1098.55 505.515 1087.86 508.367 1075.74 508.367C1062.19 508.367 1051.32 504.268 1043.12 496.068C1034.92 487.513 1030.82 476.462 1030.82 462.915C1030.82 447.586 1038.13 435.466 1052.74 426.554C1067.36 417.641 1087.14 413.185 1112.1 413.185C1116.73 413.185 1123.33 413.542 1131.88 414.255V387.518C1131.88 370.05 1129.74 357.573 1125.47 350.087C1121.19 342.244 1114.24 338.323 1104.61 338.323C1097.84 338.323 1092.49 340.462 1088.57 344.74C1084.65 349.018 1082.69 354.543 1082.69 361.316C1082.69 372.011 1085.9 380.032 1092.31 385.379ZM1100.33 481.631C1121.37 481.631 1131.88 462.559 1131.88 424.415C1114.06 424.415 1100.69 427.445 1091.78 433.505C1082.87 439.209 1078.41 447.408 1078.41 458.103C1078.41 465.232 1080.37 470.936 1084.29 475.214C1088.21 479.492 1093.56 481.631 1100.33 481.631ZM1406.86 473.075C1406.86 483.77 1410.25 489.117 1417.02 489.117C1423.79 489.117 1430.39 486.443 1436.8 481.096L1441.08 486.443C1427.89 501.059 1412.38 508.367 1394.56 508.367C1381.73 508.367 1372.46 505.159 1366.75 498.742C1361.41 491.969 1358.73 481.096 1358.73 466.124V384.31C1358.73 363.634 1352.14 353.296 1338.95 353.296C1326.12 353.296 1315.6 362.029 1307.4 379.497C1299.56 396.965 1295.64 419.78 1295.64 447.943C1295.64 458.637 1296.53 467.371 1298.31 474.145C1300.09 480.561 1302.94 486.8 1306.86 492.86L1311.14 498.207L1306.86 503.555H1229.33L1226.12 494.464L1233.61 492.86C1239.31 491.434 1243.05 489.295 1244.84 486.443C1246.62 483.235 1247.51 477.175 1247.51 468.263V363.99C1247.51 357.217 1245.19 353.83 1240.56 353.83H1223.45L1221.84 347.948C1228.97 341.888 1237.88 336.897 1248.58 332.976C1259.27 329.054 1269.97 327.094 1280.66 327.094C1285.3 327.094 1288.86 328.163 1291.36 330.302C1294.21 332.441 1295.64 335.293 1295.64 338.858V384.845C1300.63 368.09 1309.54 354.187 1322.37 343.136C1335.21 331.728 1348.75 326.024 1363.01 326.024C1378.34 326.024 1389.39 331.015 1396.16 340.997C1403.29 350.978 1406.86 366.842 1406.86 388.588V473.075ZM1655.73 486.443C1642.54 501.059 1627.03 508.367 1609.2 508.367C1598.15 508.367 1589.95 506.05 1584.61 501.416C1579.26 496.425 1575.69 488.404 1573.91 477.353C1564.64 488.048 1555.02 495.89 1545.04 500.881C1535.06 505.872 1524 508.367 1511.88 508.367C1494.06 508.367 1479.44 500.525 1468.04 484.839C1456.98 469.154 1451.46 448.834 1451.46 423.88C1451.46 393.935 1459.3 370.229 1474.99 352.761C1490.67 334.936 1512.06 326.024 1539.15 326.024C1551.63 326.024 1563.04 328.876 1573.38 334.58V275.225C1573.38 270.234 1571.06 267.739 1566.43 267.739H1548.25L1546.11 262.391C1553.24 255.975 1562.33 250.984 1573.38 247.419C1584.43 243.498 1595.3 241.537 1606 241.537C1610.63 241.537 1614.37 242.606 1617.23 244.745C1620.08 246.528 1621.5 249.201 1621.5 252.766V473.075C1621.5 483.77 1624.89 489.117 1631.66 489.117C1638.44 489.117 1645.03 486.443 1651.45 481.096L1655.73 486.443ZM1539.69 482.7C1553.24 482.7 1564.47 475.214 1573.38 460.242V345.275C1566.25 341.71 1558.41 339.927 1549.85 339.927C1519.9 339.927 1504.93 365.773 1504.93 417.463C1504.93 438.496 1507.78 454.716 1513.49 466.124C1519.55 477.175 1528.28 482.7 1539.69 482.7ZM1766.52 490.721C1776.86 490.721 1785.95 488.939 1793.8 485.374C1801.64 481.453 1809.3 475.036 1816.79 466.124L1823.21 470.936C1815.01 482.7 1804.49 491.969 1791.66 498.742C1779.18 505.159 1765.45 508.367 1750.48 508.367C1734.08 508.367 1719.29 504.446 1706.1 496.603C1693.27 488.76 1683.11 478.066 1675.62 464.519C1668.13 450.616 1664.39 434.931 1664.39 417.463C1664.39 389.657 1672.77 367.555 1689.52 351.157C1706.63 334.402 1729.27 326.024 1757.43 326.024C1777.4 326.024 1793.62 330.837 1806.09 340.462C1818.93 349.731 1825.34 361.851 1825.34 376.824C1825.34 393.935 1818.04 407.66 1803.42 417.998C1789.16 427.98 1769.55 432.97 1744.6 432.97C1734.62 432.97 1725.53 432.257 1717.33 430.831C1719.11 449.369 1724.46 463.985 1733.37 474.679C1742.28 485.374 1753.33 490.721 1766.52 490.721ZM1751.55 338.858C1740.5 338.858 1731.77 345.631 1725.35 359.178C1719.29 372.368 1716.26 390.905 1716.26 414.789V423.345C1720.18 423.345 1724.99 422.989 1730.7 422.276C1745.67 420.493 1757.08 415.681 1764.92 407.838C1773.12 399.639 1777.22 388.944 1777.22 375.754C1777.22 365.06 1774.72 356.326 1769.73 349.552C1765.1 342.423 1759.04 338.858 1751.55 338.858ZM1959.95 326.024C1971.36 326.024 1980.63 329.411 1987.76 336.184C1994.89 342.601 1998.45 350.978 1998.45 361.316C1998.45 370.942 1995.6 378.784 1989.89 384.845C1984.19 390.548 1976.7 393.4 1967.44 393.4C1960.31 393.4 1953.71 391.974 1947.65 389.122C1954.07 383.775 1957.28 375.754 1957.28 365.06C1957.28 360.069 1956.21 356.147 1954.07 353.296C1951.93 350.444 1949.08 349.018 1945.51 349.018C1936.96 349.018 1929.83 357.752 1924.12 375.219C1918.42 392.331 1915.57 413.72 1915.57 439.387C1915.57 452.577 1916.28 463.093 1917.71 470.936C1919.49 478.779 1922.34 486.087 1926.26 492.86L1930.54 498.207L1926.26 503.555H1848.73L1845.52 494.464L1853 492.86C1858.71 491.434 1862.45 489.295 1864.23 486.443C1866.02 483.235 1866.91 477.175 1866.91 468.263V363.99C1866.91 357.217 1864.59 353.83 1859.96 353.83H1843.38L1841.24 347.948C1848.01 341.888 1856.39 336.897 1866.37 332.976C1876.71 329.054 1886.87 327.094 1896.85 327.094C1901.49 327.094 1905.23 328.163 1908.08 330.302C1910.93 332.441 1912.36 335.293 1912.36 338.858V377.893H1913.96C1921.45 343.314 1936.78 326.024 1959.95 326.024Z" fill="white"/>
<path d="M2118.62 493.93C2127.54 491.434 2133.95 489.117 2137.87 486.978C2141.8 484.483 2144.47 481.274 2145.9 477.353C2147.32 473.432 2148.03 467.371 2148.03 459.172V323.885C2148.03 309.626 2146.96 298.397 2144.83 290.197C2142.69 281.998 2138.59 273.799 2132.53 265.6L2128.25 259.718L2132.53 253.836H2244.82C2264.43 253.836 2277.62 251.519 2284.39 246.884L2290.81 242.072L2296.15 246.884V313.726L2285.46 317.469C2279.04 298.218 2272.63 285.028 2266.21 277.899C2260.15 270.769 2251.24 267.204 2239.47 267.204H2221.83C2212.56 267.204 2206.5 268.986 2203.65 272.551C2200.79 275.76 2199.37 282.889 2199.37 293.941V374.15H2237.33C2251.24 374.15 2260.33 368.803 2264.61 358.108L2267.28 350.622L2274.23 354.365V414.255L2262.47 418.533L2260.33 407.303C2258.9 399.461 2255.69 394.292 2250.7 391.796C2245.71 388.944 2236.26 387.518 2222.36 387.518H2199.37V433.505C2199.37 447.408 2200.44 458.637 2202.58 467.193C2205.07 475.392 2209.35 483.591 2215.41 491.791L2219.69 498.207L2215.41 503.555H2122.37L2118.62 493.93ZM2429.89 326.024C2441.29 326.024 2450.56 329.411 2457.69 336.184C2464.82 342.601 2468.39 350.978 2468.39 361.316C2468.39 370.942 2465.54 378.784 2459.83 384.845C2454.13 390.548 2446.64 393.4 2437.37 393.4C2430.24 393.4 2423.65 391.974 2417.59 389.122C2424.01 383.775 2427.21 375.754 2427.21 365.06C2427.21 360.069 2426.14 356.147 2424.01 353.296C2421.87 350.444 2419.01 349.018 2415.45 349.018C2406.89 349.018 2399.76 357.752 2394.06 375.219C2388.36 392.331 2385.5 413.72 2385.5 439.387C2385.5 452.577 2386.22 463.093 2387.64 470.936C2389.43 478.779 2392.28 486.087 2396.2 492.86L2400.48 498.207L2396.2 503.555H2318.66L2315.46 494.464L2322.94 492.86C2328.65 491.434 2332.39 489.295 2334.17 486.443C2335.95 483.235 2336.84 477.175 2336.84 468.263V363.99C2336.84 357.217 2334.53 353.83 2329.89 353.83H2313.32L2311.18 347.948C2317.95 341.888 2326.33 336.897 2336.31 332.976C2346.65 329.054 2356.81 327.094 2366.79 327.094C2371.42 327.094 2375.17 328.163 2378.02 330.302C2380.87 332.441 2382.3 335.293 2382.3 338.858V377.893H2383.9C2391.39 343.314 2406.72 326.024 2429.89 326.024ZM2539.18 385.379C2531.69 389.657 2522.78 391.796 2512.44 391.796C2504.95 391.796 2499.07 389.657 2494.79 385.379C2490.52 380.745 2488.38 374.328 2488.38 366.129C2488.38 354.009 2494.26 344.383 2506.02 337.254C2518.14 329.767 2533.83 326.024 2553.08 326.024C2575.9 326.024 2593.72 331.015 2606.55 340.997C2619.74 350.978 2626.34 364.525 2626.34 381.636V474.145C2626.34 484.126 2629.9 489.117 2637.03 489.117C2643.81 489.117 2650.4 486.443 2656.82 481.096L2661.1 486.443C2647.91 501.059 2632.22 508.367 2614.04 508.367C2603.34 508.367 2595.15 505.694 2589.44 500.346C2584.09 494.999 2580.89 486.622 2579.82 475.214H2577.68C2571.97 485.552 2564.31 493.751 2554.68 499.812C2545.42 505.515 2534.72 508.367 2522.6 508.367C2509.05 508.367 2498.18 504.268 2489.98 496.068C2481.78 487.513 2477.68 476.462 2477.68 462.915C2477.68 447.586 2484.99 435.466 2499.61 426.554C2514.22 417.641 2534.01 413.185 2558.96 413.185C2563.6 413.185 2570.19 413.542 2578.75 414.255V387.518C2578.75 370.05 2576.61 357.573 2572.33 350.087C2568.05 342.244 2561.1 338.323 2551.48 338.323C2544.7 338.323 2539.36 340.462 2535.43 344.74C2531.51 349.018 2529.55 354.543 2529.55 361.316C2529.55 372.011 2532.76 380.032 2539.18 385.379ZM2547.2 481.631C2568.23 481.631 2578.75 462.559 2578.75 424.415C2560.92 424.415 2547.55 427.445 2538.64 433.505C2529.73 439.209 2525.27 447.408 2525.27 458.103C2525.27 465.232 2527.23 470.936 2531.16 475.214C2535.08 479.492 2540.42 481.631 2547.2 481.631ZM2835.54 340.462C2842.32 349.731 2845.88 364.525 2846.24 384.845H2847.31C2852.3 367.733 2860.5 353.652 2871.9 342.601C2883.31 331.55 2895.43 326.024 2908.27 326.024C2923.59 326.024 2934.65 331.193 2941.42 341.531C2948.55 351.513 2952.11 367.199 2952.11 388.588V473.075C2952.11 483.77 2955.5 489.117 2962.27 489.117C2969.05 489.117 2975.64 486.443 2982.06 481.096L2986.34 486.443C2973.15 501.059 2957.64 508.367 2939.82 508.367C2926.63 508.367 2917.36 504.981 2912.01 498.207C2906.66 491.078 2903.99 478.779 2903.99 461.311V384.31C2903.99 363.634 2897.21 353.296 2883.67 353.296C2872.26 353.296 2863.35 362.921 2856.93 382.171C2850.52 401.065 2847.31 422.989 2847.31 447.943C2847.66 458.994 2848.55 467.728 2849.98 474.145C2851.76 480.561 2854.61 486.8 2858.54 492.86L2862.81 498.207L2858.54 503.555H2799.18V384.31C2799.18 363.634 2792.41 353.296 2778.86 353.296C2767.45 353.296 2758.54 362.921 2752.12 382.171C2745.71 401.065 2742.5 422.989 2742.5 447.943C2742.5 458.994 2743.21 467.728 2744.64 474.145C2746.42 480.561 2749.45 486.8 2753.73 492.86L2758.01 498.207L2753.73 503.555H2676.19L2672.98 494.464L2680.47 492.86C2686.17 491.434 2689.92 489.295 2691.7 486.443C2693.48 483.235 2694.37 477.175 2694.37 468.263V363.99C2694.37 358.643 2692.06 355.969 2687.42 355.969H2670.31L2668.71 350.622C2675.84 344.562 2684.75 339.571 2695.44 335.649C2706.14 331.728 2716.83 329.767 2727.53 329.767C2732.16 329.767 2735.73 330.837 2738.22 332.976C2741.07 334.758 2742.5 337.432 2742.5 340.997V384.845C2747.13 368.446 2754.98 354.543 2766.03 343.136C2777.08 331.728 2789.56 326.024 2803.46 326.024C2818.07 326.024 2828.77 330.837 2835.54 340.462ZM3098.63 490.721C3108.97 490.721 3118.06 488.939 3125.9 485.374C3133.74 481.453 3141.41 475.036 3148.89 466.124L3155.31 470.936C3147.11 482.7 3136.6 491.969 3123.76 498.742C3111.29 505.159 3097.56 508.367 3082.59 508.367C3066.19 508.367 3051.4 504.446 3038.21 496.603C3025.37 488.76 3015.21 478.066 3007.73 464.519C3000.24 450.616 2996.5 434.931 2996.5 417.463C2996.5 389.657 3004.87 367.555 3021.63 351.157C3038.74 334.402 3061.38 326.024 3089.54 326.024C3109.5 326.024 3125.72 330.837 3138.2 340.462C3151.03 349.731 3157.45 361.851 3157.45 376.824C3157.45 393.935 3150.14 407.66 3135.53 417.998C3121.27 427.98 3101.66 432.97 3076.71 432.97C3066.72 432.97 3057.63 432.257 3049.43 430.831C3051.22 449.369 3056.56 463.985 3065.48 474.679C3074.39 485.374 3085.44 490.721 3098.63 490.721ZM3083.66 338.858C3072.61 338.858 3063.87 345.631 3057.46 359.178C3051.4 372.368 3048.37 390.905 3048.37 414.789V423.345C3052.29 423.345 3057.1 422.989 3062.8 422.276C3077.78 420.493 3089.18 415.681 3097.03 407.838C3105.22 399.639 3109.32 388.944 3109.32 375.754C3109.32 365.06 3106.83 356.326 3101.84 349.552C3097.2 342.423 3091.14 338.858 3083.66 338.858ZM3228.42 362.386C3228.42 371.298 3231.81 378.606 3238.58 384.31C3245.71 389.657 3256.41 395.717 3270.67 402.491C3282.43 408.194 3291.52 413.185 3297.94 417.463C3304.35 421.384 3309.88 426.732 3314.51 433.505C3319.51 440.278 3322 448.299 3322 457.568C3322 472.897 3314.69 485.196 3300.08 494.464C3285.82 503.733 3266.57 508.367 3242.33 508.367C3224.15 508.367 3209.17 505.159 3197.41 498.742C3185.64 491.969 3179.76 483.235 3179.76 472.54C3179.76 465.411 3182.44 459.529 3187.78 454.894C3193.13 449.903 3199.73 447.408 3207.57 447.408C3213.63 447.408 3219.69 448.656 3225.75 451.151C3219.69 455.785 3216.66 463.272 3216.66 473.61C3216.66 480.74 3219.15 486.265 3224.15 490.186C3229.14 494.108 3235.2 496.068 3242.33 496.068C3250.53 496.068 3257.48 493.93 3263.18 489.652C3269.24 485.374 3272.27 479.314 3272.27 471.471C3272.27 463.985 3269.24 458.103 3263.18 453.825C3257.48 449.19 3248.39 443.843 3235.91 437.783C3224.5 432.436 3215.23 427.623 3208.1 423.345C3201.33 418.711 3195.45 412.651 3190.46 405.164C3185.47 397.678 3182.97 388.588 3182.97 377.893C3182.97 361.851 3189.74 349.196 3203.29 339.927C3216.84 330.659 3233.95 326.024 3254.62 326.024C3272.81 326.024 3287.6 329.411 3299.01 336.184C3310.77 342.957 3316.65 351.691 3316.65 362.386C3316.65 370.585 3314.16 376.645 3309.17 380.567C3304.18 384.488 3297.76 386.449 3289.92 386.449C3282.43 386.449 3275.84 384.845 3270.13 381.636C3276.55 375.576 3279.76 367.911 3279.76 358.643C3279.76 352.583 3277.44 347.77 3272.81 344.205C3268.17 340.284 3262.11 338.323 3254.62 338.323C3246.43 338.323 3240.01 340.64 3235.37 345.275C3230.74 349.909 3228.42 355.613 3228.42 362.386Z" fill="white"/>
<defs>
<clipPath id="clip0_153_289">
<rect width="536.93" height="633.11" fill="white"/>
</clipPath>
</defs>
</svg>
