<svg width="3022" height="634" viewBox="0 0 3022 634" fill="none" xmlns="http://www.w3.org/2000/svg">
<g clip-path="url(#clip0_153_289)">
<path d="M104.38 195.22C97.8401 202.48 91.3901 209.21 85.4201 216.35C76.8401 226.6 68.9801 237.47 62.4601 249.19C57.1001 258.82 52.0401 268.69 47.7601 278.85C38.5501 300.69 32.8601 323.53 30.9901 347.29C29.0201 372.35 30.9101 397.08 37.6001 421.31C39.9601 429.84 43.1101 438.15 45.9301 446.55C46.2201 447.41 46.6901 448.21 47.1501 449.19C64.7101 444.02 82.5601 441.64 100.77 441.38C78.6101 388.86 73.8401 335.21 90.6601 280.57C107.4 226.21 140.91 184.59 187.84 153.82C187.69 153.58 187.55 153.34 187.4 153.1C183 154.5 178.61 155.92 174.21 157.29C172.3 157.89 170.35 158.33 168.44 158.94C154.78 163.32 141.09 167.61 127.48 172.14C112.87 177.01 98.3301 182.11 83.7601 187.1C83.3001 187.26 82.8101 187.31 81.8901 187.5C82.2901 185.98 82.5201 184.7 82.9701 183.49C86.3801 174.21 91.1301 165.77 97.4101 158.13C102.37 152.1 108.23 147.22 114.19 142.32C122.81 135.24 132.68 130.79 142.82 126.65C162.73 118.53 183.27 116.86 204.33 119.83C204.65 119.88 204.98 119.83 205.81 119.83C204.97 119.22 204.51 118.83 203.99 118.53C190.86 110.87 177.67 103.31 164.59 95.5498C156.27 90.6098 148.07 85.4598 139.9 80.2898C133.13 75.9998 126.47 71.5398 119.77 67.1498C119.43 66.9298 119.13 66.6498 118.2 65.8998C122.41 64.1498 126.08 62.2198 129.98 61.0698C147.51 55.8698 165.02 56.8298 182.11 62.8098C192.48 66.4398 202.58 71.1198 211.29 78.0698C219.06 84.2598 226.74 90.6698 232.26 99.2298C232.76 99.9998 233.38 100.68 234.12 101.32C222.72 67.9098 211.39 34.4998 200.85 0.00976562C223.6 4.24977 240.58 15.7298 252.72 34.8598C264.83 53.9298 268.13 74.5798 263.86 97.0298C264.61 96.6098 265.12 96.4398 265.5 96.0998C273.45 89.1198 282.92 85.0998 292.55 81.2198C307.23 75.3198 322.4 73.9698 337.9 75.5798C352.74 77.1198 366.03 82.7598 377.71 92.2198C378.37 92.7598 378.79 93.5998 379.32 94.2998C378.57 94.7398 377.86 95.3398 377.05 95.5898C361.81 100.2 346.56 104.79 331.3 109.33C314.07 114.46 296.83 119.52 279.6 124.65C276.68 125.52 273.81 126.55 270.94 127.88C274.34 127.88 277.74 127.77 281.14 127.9C297.53 128.54 313.2 132.46 327.62 140.32C335.02 144.36 342.11 149.41 348.35 155.12C359.32 165.16 366.45 177.75 368.68 192.87C368.74 193.27 368.74 193.69 368.84 194.93C352.07 189.07 335.66 183.49 319.35 177.6C303.09 171.73 286.94 165.56 270.54 159.9C271.59 160.85 272.67 161.76 273.68 162.75C290.5 179.24 300.17 199.34 302.98 222.9C304.79 238.1 303 252.87 297.21 266.98C293.48 276.06 288.4 284.4 281.02 291.9C279.24 286.19 277.46 280.96 275.99 275.65C271.27 258.62 267.14 241.41 261.89 224.56C256.74 208.04 250.62 191.82 244.67 175.57C241.53 167.01 237.85 158.66 234.41 150.22C234.07 149.38 233.66 148.57 233.02 147.18C229.31 150.59 225.87 153.73 222.45 156.89C221.47 157.79 220.56 158.76 219.61 159.69C210.63 168.62 201.18 177.12 192.78 186.58C183.89 196.61 175.58 207.25 167.8 218.19C161.19 227.49 155.26 237.37 149.79 247.42C138.3 268.52 129.12 290.69 123.29 314.11C119.62 328.86 116.31 343.77 113.87 358.77C109.54 385.42 108.39 412.35 108.76 439.35C108.78 441.1 109.35 441.66 111.05 441.75C132.03 442.75 152.6 446.32 172.78 452.25C174.4 452.73 175.63 452.5 176.94 451.49C181.71 447.79 186.69 444.37 191.28 440.45C197.64 435.01 203.98 429.5 209.84 423.51C217.45 415.73 224.83 407.68 231.87 399.37C251.39 376.35 283.06 377.49 301.42 389.82C306.25 393.07 310.19 397.77 314.3 402.04C320.28 408.27 325.86 414.9 331.93 421.04C337.34 426.52 343.02 431.75 348.87 436.74C355.23 442.16 361.94 447.17 368.47 452.38C369.44 453.15 370.34 454.01 371.22 454.89C372.73 456.41 373.94 456.1 375.44 454.68C383.09 447.42 390.84 440.28 398.53 433.06C402.74 429.1 406.73 424.89 411.09 421.11C419.09 414.16 428.37 409.87 438.67 407.49C444.92 406.05 451.16 405.13 457.44 405.97C470.51 407.72 482.9 411.62 492.62 421.22C497.62 426.16 501.45 432.14 504.68 438.52C507.19 443.47 510.29 448.12 513.43 453.42C525.34 429.13 532.51 403.91 536.05 377.44C536.33 381.52 536.71 385.59 536.86 389.67C537.61 410.48 535.29 430.93 529.85 451.02C525.23 468.07 518.64 484.27 510.04 499.67C504.15 510.21 497.59 520.24 490.2 529.77C481.26 541.29 471.6 552.08 460.58 561.56C454.43 566.85 448.37 572.28 441.86 577.07C434.06 582.81 425.78 587.86 417.8 593.34C408.29 599.88 397.66 604.09 387.36 609.03C372.51 616.16 356.79 620.42 341 624.65C306.18 633.98 270.91 634.83 235.38 630.8C225.87 629.72 216.26 628.53 207.05 626.05C191.87 621.95 176.75 617.39 162.04 611.82C150.63 607.5 139.68 601.76 128.93 595.88C120.31 591.17 112.13 585.56 104.09 579.85C97.1501 574.92 90.5501 569.46 84.0701 563.91C78.9301 559.51 73.9501 554.85 69.3201 549.89C59.7601 539.65 50.3601 529.19 42.6601 517.41C36.1301 507.42 29.7601 497.24 24.3901 486.58C8.39008 454.89 0.0400761 421.14 7.61436e-05 385.4C-0.0199239 361.12 3.90008 337.52 11.6701 314.56C15.3101 303.81 19.7001 293.42 24.7601 283.28C30.2801 272.22 36.8301 261.87 44.1401 251.96C52.5501 240.56 61.6901 229.85 72.2801 220.5C77.6701 215.74 83.1001 211.02 88.6801 206.5C92.9601 203.04 97.5001 199.91 101.94 196.66C102.6 196.18 103.35 195.83 104.37 195.23L104.38 195.22ZM49.6401 455.1C50.3101 456.6 50.6001 457.39 51.0101 458.12C56.2901 467.52 61.2501 477.12 66.9501 486.24C74.1901 497.82 83.1101 508.15 92.3501 518.11C97.1901 523.33 102.34 528.31 107.74 532.91C114.55 538.71 121.46 544.5 128.9 549.4C138.85 555.96 149.15 562.04 159.66 567.63C168.18 572.17 177.07 576.07 186.05 579.59C207.24 587.9 229.44 592.23 251.87 594.84C272.32 597.21 292.85 597.21 313.36 594.03C335.22 590.64 356.79 586.47 377.32 577.71C388.74 572.84 400.39 568.52 410.92 561.72C418.77 556.66 426.85 551.93 434.46 546.51C441.59 541.43 448.34 535.77 455.05 530.12C459.73 526.18 464.1 521.86 468.52 517.61C469.93 516.25 471.06 514.59 472.32 513.07C469.84 514.16 467.79 515.75 465.59 517.05C454.31 523.68 442.21 528.53 429.94 532.7C410.79 539.21 390.9 542.1 370.76 542.92C337.35 544.29 304.47 540.81 272.32 531.13C256.63 526.41 240.83 521.99 226.11 514.47C216.4 509.51 206.59 504.73 196.89 499.75C186.51 494.41 176.44 488.37 165.8 483.64C152.79 477.86 139.51 472.58 126.03 468.06C107.08 461.71 87.5201 457.86 67.5901 456.21C61.8101 455.73 56.0001 455.48 49.6501 455.09L49.6401 455.1ZM198.23 461.3C198.94 461.77 199.24 462.04 199.6 462.21C205.41 464.89 211.16 467.73 217.07 470.18C230.3 475.66 243.44 481.44 256.93 486.16C269.34 490.5 282.15 493.69 294.83 497.22C299.4 498.49 304.15 499.08 308.71 500.37C311.22 501.08 313.02 502.19 315.79 500.02C323.41 494.05 331.53 488.74 339.39 483.08C345.03 479.02 350.62 474.88 356.13 470.64C358.38 468.91 360.36 466.84 362.75 464.65C361.9 464.46 361.52 464.34 361.13 464.28C347.63 462.3 334.69 458.63 322.47 452.23C312.46 446.99 302.65 441.55 293.97 434.19C289.81 430.67 285.66 427.13 281.44 423.69C279.8 422.35 278.13 420.72 276.2 420.1C271.12 418.48 266.74 419.47 262.58 423.51C254.58 431.27 245.95 438.37 236.39 444.09C226 450.3 215.46 456.26 203.76 459.64C202.03 460.14 200.31 460.68 198.22 461.31L198.23 461.3ZM354.4 507.1C354.42 507.27 354.45 507.43 354.47 507.6C359.51 507.87 364.55 508.25 369.6 508.41C395.9 509.24 421.94 507.63 447.33 499.77C460.62 495.66 473.87 491.52 485.82 484.03C490.71 480.97 495.71 478.1 500.66 475.12C501.23 474.78 501.94 474.46 502.25 473.93C505.05 469.18 507.77 464.38 510.41 459.79C505.51 457.04 500.93 454.53 496.42 451.9C492.66 449.72 489.11 447.13 485.24 445.21C479.81 442.53 474.3 439.87 468.57 438.04C464.32 436.68 459.8 437.36 455.35 438.74C449.74 440.48 444.54 442.71 440.44 447.06C437.97 449.68 435.79 452.58 433.25 455.11C428.03 460.31 422.94 465.72 417.26 470.36C409.63 476.6 401.8 482.7 393.51 487.96C381.6 495.51 369.11 502.05 355.66 506.47C355.22 506.61 354.83 506.88 354.42 507.09L354.4 507.1Z" fill="white"/>
<path d="M437.45 312.419C438.82 313.129 439.62 313.709 440.52 313.999C451.4 317.469 462.28 320.939 473.2 324.289C474.23 324.599 475.69 324.429 476.63 323.889C482 320.829 487.31 317.629 492.58 314.389C496.19 312.169 499.68 309.739 503.28 307.499C505.43 306.159 512.43 307.629 513.87 309.659C515.14 311.449 514.27 313.099 513.2 314.519C510.4 318.209 507.46 321.789 504.65 325.469C502.84 327.849 501.15 330.329 499.21 333.049C502.26 334.039 505.03 334.869 507.75 335.849C508.51 336.119 509.1 336.869 509.76 337.389C509.08 337.899 508.46 338.649 507.7 338.889C495.44 342.729 483.26 343.069 470.89 338.849C460.96 335.459 450.74 332.949 440.68 329.949C434.56 328.129 428.5 326.109 422.4 324.189C421.62 323.939 420.81 323.769 420.33 324.149C418.6 325.719 416.91 327.329 415.12 328.809C414.69 329.159 413.82 329.289 413.29 329.119C408.71 327.619 404.18 325.959 399.59 324.489C394.65 322.909 393.86 321.649 395.11 316.389C394.04 316.039 392.95 315.659 391.86 315.319C379.46 311.519 367.04 307.759 354.66 303.869C353.46 303.489 351.72 302.429 351.61 301.519C351.48 300.389 352.48 298.579 353.52 297.929C361.21 293.119 369.2 289.959 378.51 293.189C391.16 297.579 403.91 301.699 416.66 305.789C418.2 306.279 420.13 306.249 421.68 305.789C429.43 303.499 437.14 301.029 444.82 298.529C449.07 297.139 453.19 295.269 457.5 294.199C459.38 293.739 461.84 294.309 463.6 295.249C465.16 296.079 463.77 297.469 462.76 298.139C461.16 299.199 459.44 300.069 457.76 301.009C451.21 304.689 444.65 308.359 437.43 312.409L437.45 312.419Z" fill="white"/>
<path d="M392.67 128.25C397.87 121.75 404.6 120.49 412.13 122.84C416.7 124.26 420.72 128.92 421.4 133.1H363.3C365.05 128.71 367.42 125.28 371.55 123.39C378.74 120.1 384.83 121.51 392.66 128.25H392.67Z" fill="white"/>
<path d="M498.09 202.26H439.87C441.27 197.55 444.32 194.73 448.32 193.07C456.05 189.87 462.96 191.53 469.01 197.54C474.66 191.8 481.38 190.02 488.88 192.68C493.22 194.22 496.58 197.19 498.1 202.26H498.09Z" fill="white"/>
<path d="M377.84 234.78C378.47 229.79 384.04 225.22 390.84 224.3C397.02 223.46 402.28 225.58 406.58 230.11C417.91 218.66 433.65 225.6 435.52 234.78H377.83H377.84Z" fill="white"/>
</g>
<path d="M785.286 94.188C814.161 94.188 849.81 113.082 892.232 150.869C949.983 217.889 978.858 287.404 978.858 359.414C978.858 431.068 943.744 480.085 873.516 506.465L858.544 508.604C820.756 508.604 791.168 481.154 769.779 426.255H768.709C756.232 470.816 739.477 493.097 718.445 493.097H715.236C687.43 493.097 668.358 440.693 658.02 335.886V304.872C658.733 267.797 669.249 246.586 689.569 241.239C695.273 241.239 700.442 246.764 705.076 257.815C694.738 272.075 689.569 288.83 689.569 308.08V312.893C689.569 378.843 699.194 427.86 718.445 459.943C732.704 449.605 743.22 407.183 749.994 332.678C749.994 272.431 754.45 242.308 763.362 242.308L768.709 241.239C780.473 241.239 786.355 252.825 786.355 275.996L783.147 334.816C783.147 374.387 795.446 415.561 820.043 458.339C832.164 470.46 844.463 476.52 856.94 476.52C877.259 476.52 899.005 463.865 922.177 438.554C938.575 416.808 946.774 389.359 946.774 356.206C946.774 282.769 914.512 215.393 849.988 154.078C833.233 140.531 807.566 129.48 772.987 120.924L768.709 110.765C771.205 99.7135 776.73 94.188 785.286 94.188ZM1094.21 270.649C1109.89 270.649 1117.74 276.887 1117.74 289.364L1112.92 299.524L1109.72 397.38C1109.72 441.584 1118.63 469.034 1136.45 479.728L1137.52 487.749C1136.45 498.087 1131.64 503.256 1123.08 503.256H1119.88C1093.14 485.076 1079.77 457.27 1079.77 419.839H1076.03C1061.77 459.765 1044.48 479.728 1024.16 479.728C1005.27 474.381 995.819 460.3 995.819 437.485C995.819 387.22 1015.96 337.134 1056.24 287.226C1069.79 276.174 1082.45 270.649 1094.21 270.649ZM1029.51 416.095L1027.37 431.068V441.228H1032.72C1059.45 374.565 1072.82 333.925 1072.82 319.309H1070.68C1050.01 342.481 1036.28 374.743 1029.51 416.095ZM1214.52 296.851C1244.82 299.346 1259.97 314.14 1259.97 341.233L1261.04 348.185L1259.97 431.603C1259.97 441.228 1265.5 454.24 1276.55 470.638V471.707C1273.7 482.046 1268.53 487.215 1261.04 487.215C1238.94 477.946 1227.89 458.339 1227.89 428.394V421.443L1226.28 420.373L1227.89 418.234V417.165L1229.49 343.372C1229.49 333.034 1225.04 327.865 1216.12 327.865H1209.71C1191.88 334.995 1182.97 374.03 1182.97 444.971C1182.97 469.568 1176.73 481.867 1164.25 481.867C1154.63 481.867 1149.64 475.807 1149.28 463.686V410.213C1149.28 341.055 1155.34 306.476 1167.46 306.476L1172.81 304.872L1184.04 306.476C1193.67 300.059 1203.82 296.851 1214.52 296.851ZM1413.62 183.488C1419.68 183.488 1425.21 189.192 1430.2 200.599L1406.67 349.254V390.963C1406.67 434.455 1413.44 456.2 1426.99 456.2C1435.9 460.478 1440.36 466.182 1440.36 473.312C1440.36 481.511 1433.23 486.323 1418.97 487.749C1403.28 487.749 1390.99 473.312 1382.07 444.436H1376.73C1363.54 473.312 1347.49 487.749 1328.6 487.749C1306.5 487.749 1293.13 470.994 1288.5 437.485C1288.5 398.628 1314.52 357.453 1366.57 313.962C1376.9 313.962 1382.07 299.524 1382.07 270.649C1389.92 212.542 1400.43 183.488 1413.62 183.488ZM1320.05 433.207V447.645L1328.6 456.2H1331.81C1343.22 456.2 1356.59 421.799 1371.91 352.997H1368.71C1336.27 385.438 1320.05 412.174 1320.05 433.207ZM1502.02 285.087C1516.28 285.443 1540.34 310.397 1574.21 359.949L1575.28 369.039C1575.28 379.021 1550.86 386.685 1502.02 392.033L1500.42 393.637V395.776C1507.9 427.86 1515.75 443.901 1523.94 443.901H1530.36C1541.77 443.901 1559.06 431.603 1582.23 407.005H1585.44C1592.57 407.005 1598.09 412.174 1602.01 422.512C1602.01 431.068 1587.04 445.862 1557.1 466.895C1549.25 471.529 1539.81 474.916 1528.76 477.055C1499.88 477.055 1479.74 449.962 1468.33 395.776C1451.93 393.28 1443.73 386.507 1443.73 375.456C1443.73 367.613 1449.8 362.444 1461.92 359.949V362.088L1467.26 359.949V346.581C1467.26 305.585 1478.85 285.087 1502.02 285.087ZM1505.23 323.587H1500.42L1498.28 343.372V359.949H1500.42C1520.38 359.236 1530.36 357.097 1530.36 353.532C1521.09 339.629 1512.72 329.647 1505.23 323.587ZM1687.8 266.371C1710.26 266.371 1723.63 282.056 1727.91 313.427V318.24C1727.91 352.819 1710.08 384.546 1674.43 413.422C1695.11 433.742 1731.29 443.901 1782.98 443.901C1790.83 446.397 1794.75 451.922 1794.75 460.478C1794.75 470.103 1788.51 474.916 1776.03 474.916C1741.1 474.916 1704.38 466.004 1665.88 448.179V463.686C1665.88 500.405 1658.03 518.764 1642.35 518.764C1631.3 518.764 1625.77 497.553 1625.77 455.131V413.422L1624.17 398.449L1627.91 381.338L1624.17 330.004V327.865C1624.17 318.24 1629.16 311.645 1639.14 308.08C1653.04 280.274 1669.26 266.371 1687.8 266.371ZM1661.07 383.477C1671.4 383.477 1682.99 364.94 1695.82 327.865V304.872L1689.41 297.92H1684.59C1668.91 308.615 1661.07 337.134 1661.07 383.477Z" fill="white"/>
<path d="M2081.58 142.314C2099.76 142.314 2110.45 148.909 2113.66 162.099C2113.66 167.446 2108.49 173.15 2098.15 179.21L2080.51 174.397H2078.37C2058.41 174.397 2035.59 202.738 2009.92 259.42C2006.36 273.323 2004.58 286.691 2004.58 299.524V321.448H2006.72C2050.21 311.11 2078.01 305.941 2090.13 305.941C2105.82 308.793 2113.66 315.031 2113.66 324.657C2110.45 334.638 2105.28 339.629 2098.15 339.629L2088.53 338.025C2052.17 341.233 2025.43 346.759 2008.32 354.601V358.345L2014.74 444.971C2014.74 485.967 2006.54 506.465 1990.14 506.465C1984.44 506.465 1979.27 502.009 1974.63 493.097C1980.34 478.481 1983.19 460.122 1983.19 438.019C1983.19 415.561 1981.05 390.072 1976.77 361.553L1951.1 364.761C1927.93 362.622 1916.35 355.314 1916.35 342.837C1919.91 332.856 1925.62 327.865 1933.46 327.865L1946.83 331.608H1956.45L1973.56 329.469V299.524C1973.56 244.269 1997.98 195.787 2046.82 154.078C2057.87 146.235 2069.46 142.314 2081.58 142.314ZM2203.08 266.371C2225.54 266.371 2238.91 282.056 2243.19 313.427V318.24C2243.19 352.819 2225.36 384.546 2189.71 413.422C2210.39 433.742 2246.57 443.901 2298.26 443.901C2306.11 446.397 2310.03 451.922 2310.03 460.478C2310.03 470.103 2303.79 474.916 2291.31 474.916C2256.38 474.916 2219.66 466.004 2181.16 448.179V463.686C2181.16 500.405 2173.32 518.764 2157.63 518.764C2146.58 518.764 2141.05 497.553 2141.05 455.131V413.422L2139.45 398.449L2143.19 381.338L2139.45 330.004V327.865C2139.45 318.24 2144.44 311.645 2154.42 308.08C2168.33 280.274 2184.55 266.371 2203.08 266.371ZM2176.35 383.477C2186.68 383.477 2198.27 364.94 2211.1 327.865V304.872L2204.69 297.92H2199.87C2184.19 308.615 2176.35 337.134 2176.35 383.477ZM2422.45 270.649C2438.13 270.649 2445.98 276.887 2445.98 289.364L2441.16 299.524L2437.95 397.38C2437.95 441.584 2446.87 469.034 2464.69 479.728L2465.76 487.749C2464.69 498.087 2459.88 503.256 2451.32 503.256H2448.11C2421.38 485.076 2408.01 457.27 2408.01 419.839H2404.27C2390.01 459.765 2372.72 479.728 2352.4 479.728C2333.5 474.381 2324.06 460.3 2324.06 437.485C2324.06 387.22 2344.2 337.134 2384.48 287.226C2398.03 276.174 2410.68 270.649 2422.45 270.649ZM2357.75 416.095L2355.61 431.068V441.228H2360.95C2387.69 374.565 2401.06 333.925 2401.06 319.309H2398.92C2378.24 342.481 2364.52 374.743 2357.75 416.095ZM2481.8 289.899C2484.29 280.987 2490 276.531 2498.91 276.531C2507.82 276.531 2513.7 285.443 2516.56 303.267H2518.69L2543.29 297.92C2554.7 297.92 2565.75 308.615 2576.45 330.004H2578.58C2594.27 305.406 2610.31 293.108 2626.71 293.108C2661.65 299.524 2679.11 322.339 2679.11 361.553L2680.18 380.269L2675.37 488.284V498.444C2675.37 507.356 2669.85 512.525 2658.79 513.951C2647.74 513.951 2642.22 500.939 2642.22 474.916L2648.63 378.13C2648.63 342.481 2640.26 324.657 2623.5 324.657C2613.88 324.657 2602.29 348.006 2588.74 394.706C2581.97 448.179 2576.45 474.916 2572.17 474.916C2566.11 474.916 2563.08 476.163 2563.08 478.659C2552.03 477.233 2546.5 471.529 2546.5 461.548L2553.45 396.845C2552.38 352.284 2547.93 330.004 2540.08 330.004H2538.48C2529.57 336.777 2525.11 350.145 2525.11 370.109V398.449L2522.97 480.263C2520.48 489.175 2514.95 493.631 2506.4 493.631C2498.91 493.631 2494.1 487.393 2491.96 474.916L2489.82 411.818L2493.03 359.949C2490.89 333.212 2487.15 309.862 2481.8 289.899ZM2752.58 285.087C2766.84 285.443 2790.9 310.397 2824.77 359.949L2825.83 369.039C2825.83 379.021 2801.42 386.685 2752.58 392.033L2750.97 393.637V395.776C2758.46 427.86 2766.3 443.901 2774.5 443.901H2780.92C2792.32 443.901 2809.61 431.603 2832.79 407.005H2835.99C2843.12 407.005 2848.65 412.174 2852.57 422.512C2852.57 431.068 2837.6 445.862 2807.65 466.895C2799.81 471.529 2790.36 474.916 2779.31 477.055C2750.44 477.055 2730.3 449.962 2718.89 395.776C2702.49 393.28 2694.29 386.507 2694.29 375.456C2694.29 367.613 2700.35 362.444 2712.47 359.949V362.088L2717.82 359.949V346.581C2717.82 305.585 2729.4 285.087 2752.58 285.087ZM2755.78 323.587H2750.97L2748.83 343.372V359.949H2750.97C2770.94 359.236 2780.92 357.097 2780.92 353.532C2771.65 339.629 2763.27 329.647 2755.78 323.587ZM2975.25 260.489C2984.88 260.489 2991.47 276.709 2995.04 309.149C2991.47 318.062 2985.59 322.518 2977.39 322.518C2971.69 321.448 2965.99 314.853 2960.28 302.733L2950.66 299.524C2933.9 299.524 2918.75 310.575 2905.2 332.678V337.49C2905.2 342.837 2930.34 351.75 2980.6 364.227C3001.63 376.704 3012.15 391.854 3012.15 409.679C3012.15 438.911 2988.62 463.865 2941.57 484.541L2921.78 487.749C2891.84 484.541 2876.86 469.568 2876.86 442.832V441.228C2876.86 432.672 2882.39 427.681 2893.44 426.255C2902 426.255 2907.7 435.167 2910.55 452.992L2914.83 456.2H2923.92C2944.24 456.2 2963.13 442.297 2980.6 414.491V407.54C2980.6 396.845 2957.25 386.864 2910.55 377.595C2885.95 367.613 2873.66 353.71 2873.66 335.886C2873.66 312.714 2893.08 290.969 2931.94 270.649C2949.05 268.51 2963.49 265.123 2975.25 260.489Z" fill="white"/>
<defs>
<clipPath id="clip0_153_289">
<rect width="536.93" height="633.11" fill="white"/>
</clipPath>
</defs>
</svg>
