<svg width="800" height="800" viewBox="0 0 800 800" fill="none" xmlns="http://www.w3.org/2000/svg">
<g clip-path="url(#clip0_154_368)">
<path d="M236.38 278.22C229.84 285.48 223.39 292.21 217.42 299.35C208.84 309.6 200.98 320.47 194.46 332.19C189.1 341.82 184.04 351.69 179.76 361.85C170.55 383.69 164.86 406.53 162.99 430.29C161.02 455.35 162.91 480.08 169.6 504.31C171.96 512.84 175.11 521.15 177.93 529.55C178.22 530.41 178.69 531.21 179.15 532.19C196.71 527.02 214.56 524.64 232.77 524.38C210.61 471.86 205.84 418.21 222.66 363.57C239.4 309.21 272.91 267.59 319.84 236.82C319.69 236.58 319.55 236.34 319.4 236.1C315 237.5 310.61 238.92 306.21 240.29C304.3 240.89 302.35 241.33 300.44 241.94C286.78 246.32 273.09 250.61 259.48 255.14C244.87 260.01 230.33 265.11 215.76 270.1C215.3 270.26 214.81 270.31 213.89 270.5C214.29 268.98 214.52 267.7 214.97 266.49C218.38 257.21 223.13 248.77 229.41 241.13C234.37 235.1 240.23 230.22 246.19 225.32C254.81 218.24 264.68 213.79 274.82 209.65C294.73 201.53 315.27 199.86 336.33 202.83C336.65 202.88 336.98 202.83 337.81 202.83C336.97 202.22 336.51 201.83 335.99 201.53C322.86 193.87 309.67 186.31 296.59 178.55C288.27 173.61 280.07 168.46 271.9 163.29C265.13 159 258.47 154.54 251.77 150.15C251.43 149.93 251.13 149.65 250.2 148.9C254.41 147.15 258.08 145.22 261.98 144.07C279.51 138.87 297.02 139.83 314.11 145.81C324.48 149.44 334.58 154.12 343.29 161.07C351.06 167.26 358.74 173.67 364.26 182.23C364.76 183 365.38 183.68 366.12 184.32C354.72 150.91 343.39 117.5 332.85 83.0098C355.6 87.2498 372.58 98.7298 384.72 117.86C396.83 136.93 400.13 157.58 395.86 180.03C396.61 179.61 397.12 179.44 397.5 179.1C405.45 172.12 414.92 168.1 424.55 164.22C439.23 158.32 454.4 156.97 469.9 158.58C484.74 160.12 498.03 165.76 509.71 175.22C510.37 175.76 510.79 176.6 511.32 177.3C510.57 177.74 509.86 178.34 509.05 178.59C493.81 183.2 478.56 187.79 463.3 192.33C446.07 197.46 428.83 202.52 411.6 207.65C408.68 208.52 405.81 209.55 402.94 210.88C406.34 210.88 409.74 210.77 413.14 210.9C429.53 211.54 445.2 215.46 459.62 223.32C467.02 227.36 474.11 232.41 480.35 238.12C491.32 248.16 498.45 260.75 500.68 275.87C500.74 276.27 500.74 276.69 500.84 277.93C484.07 272.07 467.66 266.49 451.35 260.6C435.09 254.73 418.94 248.56 402.54 242.9C403.59 243.85 404.67 244.76 405.68 245.75C422.5 262.24 432.17 282.34 434.98 305.9C436.79 321.1 435 335.87 429.21 349.98C425.48 359.06 420.4 367.4 413.02 374.9C411.24 369.19 409.46 363.96 407.99 358.65C403.27 341.62 399.14 324.41 393.89 307.56C388.74 291.04 382.62 274.82 376.67 258.57C373.53 250.01 369.85 241.66 366.41 233.22C366.07 232.38 365.66 231.57 365.02 230.18C361.31 233.59 357.87 236.73 354.45 239.89C353.47 240.79 352.56 241.76 351.61 242.69C342.63 251.62 333.18 260.12 324.78 269.58C315.89 279.61 307.58 290.25 299.8 301.19C293.19 310.49 287.26 320.37 281.79 330.42C270.3 351.52 261.12 373.69 255.29 397.11C251.62 411.86 248.31 426.77 245.87 441.77C241.54 468.42 240.39 495.35 240.76 522.35C240.78 524.1 241.35 524.66 243.05 524.75C264.03 525.75 284.6 529.32 304.78 535.25C306.4 535.73 307.63 535.5 308.94 534.49C313.71 530.79 318.69 527.37 323.28 523.45C329.64 518.01 335.98 512.5 341.84 506.51C349.45 498.73 356.83 490.68 363.87 482.37C383.39 459.35 415.06 460.49 433.42 472.82C438.25 476.07 442.19 480.77 446.3 485.04C452.28 491.27 457.86 497.9 463.93 504.04C469.34 509.52 475.02 514.75 480.87 519.74C487.23 525.16 493.94 530.17 500.47 535.38C501.44 536.15 502.34 537.01 503.22 537.89C504.73 539.41 505.94 539.1 507.44 537.68C515.09 530.42 522.84 523.28 530.53 516.06C534.74 512.1 538.73 507.89 543.09 504.11C551.09 497.16 560.37 492.87 570.67 490.49C576.92 489.05 583.16 488.13 589.44 488.97C602.51 490.72 614.9 494.62 624.62 504.22C629.62 509.16 633.45 515.14 636.68 521.52C639.19 526.47 642.29 531.12 645.43 536.42C657.34 512.13 664.51 486.91 668.05 460.44C668.33 464.52 668.71 468.59 668.86 472.67C669.61 493.48 667.29 513.93 661.85 534.02C657.23 551.07 650.64 567.27 642.04 582.67C636.15 593.21 629.59 603.24 622.2 612.77C613.26 624.29 603.6 635.08 592.58 644.56C586.43 649.85 580.37 655.28 573.86 660.07C566.06 665.81 557.78 670.86 549.8 676.34C540.29 682.88 529.66 687.09 519.36 692.03C504.51 699.16 488.79 703.42 473 707.65C438.18 716.98 402.91 717.83 367.38 713.8C357.87 712.72 348.26 711.53 339.05 709.05C323.87 704.95 308.75 700.39 294.04 694.82C282.63 690.5 271.68 684.76 260.93 678.88C252.31 674.17 244.13 668.56 236.09 662.85C229.15 657.92 222.55 652.46 216.07 646.91C210.93 642.51 205.95 637.85 201.32 632.89C191.76 622.65 182.36 612.19 174.66 600.41C168.13 590.42 161.76 580.24 156.39 569.58C140.39 537.89 132.04 504.14 132 468.4C131.98 444.12 135.9 420.52 143.67 397.56C147.31 386.81 151.7 376.42 156.76 366.28C162.28 355.22 168.83 344.87 176.14 334.96C184.55 323.56 193.69 312.85 204.28 303.5C209.67 298.74 215.1 294.02 220.68 289.5C224.96 286.04 229.5 282.91 233.94 279.66C234.6 279.18 235.35 278.83 236.37 278.23L236.38 278.22ZM181.64 538.1C182.31 539.6 182.6 540.39 183.01 541.12C188.29 550.52 193.25 560.12 198.95 569.24C206.19 580.82 215.11 591.15 224.35 601.11C229.19 606.33 234.34 611.31 239.74 615.91C246.55 621.71 253.46 627.5 260.9 632.4C270.85 638.96 281.15 645.04 291.66 650.63C300.18 655.17 309.07 659.07 318.05 662.59C339.24 670.9 361.44 675.23 383.87 677.84C404.32 680.21 424.85 680.21 445.36 677.03C467.22 673.64 488.79 669.47 509.32 660.71C520.74 655.84 532.39 651.52 542.92 644.72C550.77 639.66 558.85 634.93 566.46 629.51C573.59 624.43 580.34 618.77 587.05 613.12C591.73 609.18 596.1 604.86 600.52 600.61C601.93 599.25 603.06 597.59 604.32 596.07C601.84 597.16 599.79 598.75 597.59 600.05C586.31 606.68 574.21 611.53 561.94 615.7C542.79 622.21 522.9 625.1 502.76 625.92C469.35 627.29 436.47 623.81 404.32 614.13C388.63 609.41 372.83 604.99 358.11 597.47C348.4 592.51 338.59 587.73 328.89 582.75C318.51 577.41 308.44 571.37 297.8 566.64C284.79 560.86 271.51 555.58 258.03 551.06C239.08 544.71 219.52 540.86 199.59 539.21C193.81 538.73 188 538.48 181.65 538.09L181.64 538.1ZM330.23 544.3C330.94 544.77 331.24 545.04 331.6 545.21C337.41 547.89 343.16 550.73 349.07 553.18C362.3 558.66 375.44 564.44 388.93 569.16C401.34 573.5 414.15 576.69 426.83 580.22C431.4 581.49 436.15 582.08 440.71 583.37C443.22 584.08 445.02 585.19 447.79 583.02C455.41 577.05 463.53 571.74 471.39 566.08C477.03 562.02 482.62 557.88 488.13 553.64C490.38 551.91 492.36 549.84 494.75 547.65C493.9 547.46 493.52 547.34 493.13 547.28C479.63 545.3 466.69 541.63 454.47 535.23C444.46 529.99 434.65 524.55 425.97 517.19C421.81 513.67 417.66 510.13 413.44 506.69C411.8 505.35 410.13 503.72 408.2 503.1C403.12 501.48 398.74 502.47 394.58 506.51C386.58 514.27 377.95 521.37 368.39 527.09C358 533.3 347.46 539.26 335.76 542.64C334.03 543.14 332.31 543.68 330.22 544.31L330.23 544.3ZM486.4 590.1C486.42 590.27 486.45 590.43 486.47 590.6C491.51 590.87 496.55 591.25 501.6 591.41C527.9 592.24 553.94 590.63 579.33 582.77C592.62 578.66 605.87 574.52 617.82 567.03C622.71 563.97 627.71 561.1 632.66 558.12C633.23 557.78 633.94 557.46 634.25 556.93C637.05 552.18 639.77 547.38 642.41 542.79C637.51 540.04 632.93 537.53 628.42 534.9C624.66 532.72 621.11 530.13 617.24 528.21C611.81 525.53 606.3 522.87 600.57 521.04C596.32 519.68 591.8 520.36 587.35 521.74C581.74 523.48 576.54 525.71 572.44 530.06C569.97 532.68 567.79 535.58 565.25 538.11C560.03 543.31 554.94 548.72 549.26 553.36C541.63 559.6 533.8 565.7 525.51 570.96C513.6 578.51 501.11 585.05 487.66 589.47C487.22 589.61 486.83 589.88 486.42 590.09L486.4 590.1Z" fill="black"/>
<path d="M569.45 395.419C570.82 396.129 571.62 396.709 572.52 396.999C583.4 400.469 594.28 403.939 605.2 407.289C606.23 407.599 607.69 407.429 608.63 406.889C614 403.829 619.31 400.629 624.58 397.389C628.19 395.169 631.68 392.739 635.28 390.499C637.43 389.159 644.43 390.629 645.87 392.659C647.14 394.449 646.27 396.099 645.2 397.519C642.4 401.209 639.46 404.789 636.65 408.469C634.84 410.849 633.15 413.329 631.21 416.049C634.26 417.039 637.03 417.869 639.75 418.849C640.51 419.119 641.1 419.869 641.76 420.389C641.08 420.899 640.46 421.649 639.7 421.889C627.44 425.729 615.26 426.069 602.89 421.849C592.96 418.459 582.74 415.949 572.68 412.949C566.56 411.129 560.5 409.109 554.4 407.189C553.62 406.939 552.81 406.769 552.33 407.149C550.6 408.719 548.91 410.329 547.12 411.809C546.69 412.159 545.82 412.289 545.29 412.119C540.71 410.619 536.18 408.959 531.59 407.489C526.65 405.909 525.86 404.649 527.11 399.389C526.04 399.039 524.95 398.659 523.86 398.319C511.46 394.519 499.04 390.759 486.66 386.869C485.46 386.489 483.72 385.429 483.61 384.519C483.48 383.389 484.48 381.579 485.52 380.929C493.21 376.119 501.2 372.959 510.51 376.189C523.16 380.579 535.91 384.699 548.66 388.789C550.2 389.279 552.13 389.249 553.68 388.789C561.43 386.499 569.14 384.029 576.82 381.529C581.07 380.139 585.19 378.269 589.5 377.199C591.38 376.739 593.84 377.309 595.6 378.249C597.16 379.079 595.77 380.469 594.76 381.139C593.16 382.199 591.44 383.069 589.76 384.009C583.21 387.689 576.65 391.359 569.43 395.409L569.45 395.419Z" fill="black"/>
<path d="M524.67 211.25C529.87 204.75 536.6 203.49 544.13 205.84C548.7 207.26 552.72 211.92 553.4 216.1H495.3C497.05 211.71 499.42 208.28 503.55 206.39C510.74 203.1 516.83 204.51 524.66 211.25H524.67Z" fill="black"/>
<path d="M630.09 285.26H571.87C573.27 280.55 576.32 277.73 580.32 276.07C588.05 272.87 594.96 274.53 601.01 280.54C606.66 274.8 613.38 273.02 620.88 275.68C625.22 277.22 628.58 280.19 630.1 285.26H630.09Z" fill="black"/>
<path d="M509.84 317.78C510.47 312.79 516.04 308.22 522.84 307.3C529.02 306.46 534.28 308.58 538.58 313.11C549.91 301.66 565.65 308.6 567.52 317.78H509.83H509.84Z" fill="black"/>
</g>
<defs>
<clipPath id="clip0_154_368">
<rect width="536.93" height="633.11" fill="white" transform="translate(132 83)"/>
</clipPath>
</defs>
</svg>
